<?xml version="1.0" encoding="UTF-8"?>
<svg xmlns="http://www.w3.org/2000/svg" xmlns:xlink="http://www.w3.org/1999/xlink" width="30px" height="30px" viewBox="0 0 30 30" version="1.1">
<g id="surface1">
<path style=" stroke:none;fill-rule:nonzero;fill:rgb(0%,0%,0%);fill-opacity:1;" d="M 13.210938 0.0390625 C 12.039062 0.199219 10.933594 1.019531 10.375 2.144531 C 10.078125 2.757812 10.007812 3.179688 10.03125 4.371094 C 10.046875 5.40625 10.046875 5.429688 10.207031 5.671875 C 10.695312 6.40625 11.765625 6.414062 12.273438 5.695312 C 12.453125 5.4375 12.453125 5.4375 12.484375 4.4375 C 12.503906 3.878906 12.546875 3.359375 12.578125 3.273438 C 12.6875 3.035156 12.949219 2.757812 13.1875 2.636719 C 13.398438 2.523438 13.554688 2.519531 16.445312 2.519531 L 19.484375 2.519531 L 19.15625 2.660156 C 18.453125 2.945312 18.039062 3.328125 17.734375 3.972656 L 17.546875 4.367188 L 17.53125 14.046875 L 17.519531 23.730469 L 15.460938 23.730469 C 13.160156 23.730469 13.148438 23.730469 12.785156 23.285156 C 12.515625 22.960938 12.480469 22.703125 12.480469 21.140625 C 12.480469 19.539062 12.453125 19.414062 12.054688 19.0625 C 11.578125 18.644531 10.898438 18.65625 10.429688 19.078125 C 10.023438 19.441406 10.007812 19.554688 10.03125 21.539062 L 10.054688 23.289062 L 10.21875 23.730469 C 10.652344 24.875 11.46875 25.65625 12.65625 26.078125 C 13.023438 26.214844 13.113281 26.21875 15.28125 26.238281 L 17.519531 26.257812 L 17.519531 27.070312 C 17.519531 28.015625 17.617188 28.421875 17.960938 28.914062 C 18.457031 29.640625 19.375 30.070312 20.242188 29.976562 C 20.46875 29.953125 22.03125 29.460938 24.5625 28.617188 C 28.8125 27.203125 29 27.125 29.402344 26.613281 C 29.648438 26.308594 29.859375 25.863281 29.9375 25.5 C 29.984375 25.277344 30 21.992188 30 13.722656 C 30 3.601562 29.988281 2.210938 29.914062 1.90625 C 29.660156 0.945312 28.90625 0.246094 27.925781 0.0625 C 27.6875 0.015625 25.398438 0 20.484375 0.0078125 C 16.582031 0.0117188 13.3125 0.03125 13.210938 0.0390625 Z M 13.210938 0.0390625 "/>
<path style=" stroke:none;fill-rule:nonzero;fill:rgb(0%,0%,0%);fill-opacity:1;" d="M 7 6.382812 C 6.691406 6.523438 6.515625 6.703125 6.382812 6.996094 C 6.28125 7.210938 6.269531 7.414062 6.269531 9.242188 L 6.269531 11.25 L 1.019531 11.25 L 0.695312 11.40625 C -0.140625 11.835938 -0.222656 12.996094 0.546875 13.515625 C 0.878906 13.746094 1.164062 13.769531 3.765625 13.769531 L 6.269531 13.769531 L 6.269531 15.773438 C 6.269531 17.601562 6.28125 17.804688 6.382812 18.023438 C 6.5625 18.421875 7.066406 18.75 7.5 18.75 C 7.976562 18.75 8.003906 18.726562 10.796875 15.945312 C 12.359375 14.398438 13.535156 13.179688 13.605469 13.042969 C 13.75 12.761719 13.757812 12.296875 13.628906 11.984375 C 13.484375 11.636719 8.398438 6.554688 8.027344 6.390625 C 7.699219 6.242188 7.304688 6.242188 7 6.382812 Z M 7 6.382812 "/>
</g>
</svg>
