<?xml version="1.0" encoding="UTF-8"?>
<svg xmlns="http://www.w3.org/2000/svg" xmlns:xlink="http://www.w3.org/1999/xlink" width="30px" height="30px" viewBox="0 0 30 30" version="1.1">
<g id="surface1">
<path style=" stroke:none;fill-rule:nonzero;fill:rgb(0%,0%,0%);fill-opacity:1;" d="M 8.609375 3.015625 C 6.375 3.367188 4.582031 4.300781 3.011719 5.929688 C 1.75 7.234375 0.929688 8.8125 0.546875 10.65625 C 0.410156 11.289062 0.390625 11.542969 0.386719 12.453125 C 0.382812 14.167969 0.667969 15.410156 1.417969 16.90625 C 2.25 18.574219 3.75 20.097656 5.449219 21.015625 C 8.425781 22.628906 12.203125 22.492188 15.109375 20.671875 C 17.476562 19.195312 19.140625 16.59375 19.515625 13.796875 C 19.617188 13.03125 19.554688 11.3125 19.398438 10.585938 C 18.527344 6.578125 15.339844 3.574219 11.367188 3.015625 C 10.585938 2.914062 9.296875 2.914062 8.609375 3.015625 Z M 11.335938 4.839844 C 14.050781 5.285156 16.40625 7.277344 17.335938 9.921875 C 17.65625 10.828125 17.773438 11.519531 17.773438 12.539062 C 17.773438 14.203125 17.359375 15.539062 16.417969 16.957031 C 16.054688 17.507812 15.171875 18.414062 14.601562 18.828125 C 13.679688 19.488281 12.492188 20.003906 11.398438 20.21875 C 10.78125 20.34375 9.0625 20.332031 8.453125 20.195312 C 5.328125 19.53125 3.03125 17.242188 2.335938 14.117188 C 2.164062 13.324219 2.144531 11.851562 2.304688 11.0625 C 2.851562 8.3125 4.78125 6.082031 7.382812 5.167969 C 8.683594 4.710938 9.925781 4.609375 11.335938 4.839844 Z M 11.335938 4.839844 "/>
<path style=" stroke:none;fill-rule:nonzero;fill:rgb(0%,0%,0%);fill-opacity:1;" d="M 10.601562 6.203125 C 10.40625 6.398438 10.375 6.644531 10.515625 6.90625 C 10.617188 7.101562 10.65625 7.125 11.28125 7.273438 C 11.539062 7.335938 12.015625 7.515625 12.34375 7.675781 C 14.945312 8.941406 16.085938 11.96875 14.964844 14.660156 C 14.777344 15.117188 14.78125 15.316406 14.992188 15.53125 C 15.128906 15.664062 15.222656 15.703125 15.398438 15.703125 C 15.734375 15.703125 15.890625 15.546875 16.101562 15.007812 C 16.773438 13.304688 16.722656 11.382812 15.96875 9.742188 C 15.175781 8.027344 13.488281 6.617188 11.664062 6.148438 C 11.039062 5.984375 10.8125 6 10.601562 6.203125 Z M 10.601562 6.203125 "/>
<path style=" stroke:none;fill-rule:nonzero;fill:rgb(0%,0%,0%);fill-opacity:1;" d="M 18.996094 17.304688 C 18.601562 18.058594 18.03125 18.867188 17.445312 19.488281 L 16.984375 19.96875 L 17.179688 20.117188 C 17.285156 20.191406 18.984375 21.398438 20.945312 22.792969 C 22.914062 24.195312 24.996094 25.671875 25.578125 26.085938 C 26.828125 26.976562 27.082031 27.09375 27.742188 27.058594 C 28.523438 27.015625 29.140625 26.601562 29.460938 25.90625 C 29.589844 25.628906 29.617188 25.492188 29.617188 25.078125 C 29.617188 24.484375 29.449219 24.058594 29.078125 23.695312 C 28.90625 23.519531 20.167969 17.265625 19.460938 16.804688 L 19.304688 16.703125 Z M 18.996094 17.304688 "/>
</g>
</svg>
