<?xml version="1.0" encoding="UTF-8"?>
<svg xmlns="http://www.w3.org/2000/svg" xmlns:xlink="http://www.w3.org/1999/xlink" width="30px" height="30px" viewBox="0 0 30 30" version="1.1">
<g id="surface1">
<path style=" stroke:none;fill-rule:nonzero;fill:rgb(0%,0%,0%);fill-opacity:1;" d="M 14.289062 0.105469 C 14.078125 0.15625 13.757812 0.296875 13.578125 0.40625 C 13.347656 0.546875 11.367188 2.492188 6.867188 6.996094 C 0.976562 12.890625 0.46875 13.417969 0.296875 13.769531 C 0.046875 14.308594 -0.0390625 14.882812 0.046875 15.421875 C 0.273438 16.792969 1.421875 17.753906 2.824219 17.753906 L 3.21875 17.753906 L 3.234375 22.601562 L 3.25 27.453125 L 3.40625 27.84375 C 3.828125 28.933594 4.699219 29.6875 5.789062 29.914062 C 6.148438 29.988281 6.679688 30 8.875 29.988281 C 11.453125 29.96875 11.539062 29.964844 11.695312 29.847656 C 11.78125 29.78125 11.914062 29.65625 11.976562 29.566406 C 12.101562 29.40625 12.101562 29.332031 12.128906 25.5 L 12.15625 21.59375 L 12.316406 21.320312 C 12.507812 20.992188 12.8125 20.753906 13.171875 20.648438 C 13.488281 20.546875 16.429688 20.53125 16.757812 20.625 C 17.121094 20.726562 17.496094 21.007812 17.679688 21.3125 L 17.84375 21.59375 L 17.871094 25.5 C 17.898438 29.332031 17.898438 29.40625 18.023438 29.566406 C 18.085938 29.65625 18.21875 29.78125 18.304688 29.847656 C 18.460938 29.964844 18.546875 29.96875 21.125 29.988281 C 24.082031 30.007812 24.292969 29.988281 25.007812 29.636719 C 25.484375 29.402344 26.09375 28.820312 26.355469 28.351562 C 26.460938 28.164062 26.59375 27.8125 26.660156 27.5625 C 26.773438 27.128906 26.777344 26.90625 26.777344 22.429688 L 26.777344 17.753906 L 27.175781 17.753906 C 27.96875 17.753906 28.628906 17.476562 29.1875 16.921875 C 30.011719 16.109375 30.210938 14.867188 29.695312 13.773438 C 29.53125 13.414062 29.09375 12.960938 23.179688 7.042969 C 19.324219 3.179688 16.710938 0.601562 16.5 0.46875 C 15.878906 0.046875 15.023438 -0.09375 14.289062 0.105469 Z M 14.289062 0.105469 "/>
</g>
</svg>
