<?xml version="1.0" standalone="no"?>
<!DOCTYPE svg PUBLIC "-//W3C//DTD SVG 20010904//EN"
 "http://www.w3.org/TR/2001/REC-SVG-20010904/DTD/svg10.dtd">
<svg version="1.0" xmlns="http://www.w3.org/2000/svg"
 width="512.000000pt" height="512.000000pt" viewBox="0 0 512.000000 512.000000"
 preserveAspectRatio="xMidYMid meet">
<metadata>
Created by potrace 1.16, written by Peter Selinger 2001-2019
</metadata>
<g transform="translate(0.000000,512.000000) scale(0.100000,-0.100000)"
fill="#000000" stroke="none">
<path d="M3380 4977 c-56 -28 -68 -39 -90 -82 -24 -48 -25 -60 -28 -257 -3
-150 -7 -208 -15 -208 -7 0 -37 7 -67 15 -150 41 -419 56 -605 35 -298 -35
-610 -151 -923 -344 -530 -328 -850 -857 -903 -1491 -30 -363 60 -772 240
-1085 47 -82 48 -85 27 -93 -11 -5 -136 -7 -276 -6 -169 2 -272 -1 -305 -9
-27 -6 -63 -14 -79 -17 -16 -4 -43 -21 -59 -38 -91 -97 -117 -321 -78 -664 21
-180 42 -243 102 -302 43 -44 86 -61 150 -61 51 0 51 0 46 -27 -3 -16 -11 -65
-17 -111 -11 -75 -11 -85 5 -102 10 -11 30 -20 45 -20 35 0 179 94 286 188
l82 71 388 3 c431 3 427 3 496 72 55 55 68 97 68 234 l0 123 28 -14 c58 -30
248 -88 365 -112 558 -112 1125 13 1577 349 103 76 299 267 396 386 203 248
334 540 396 877 30 169 30 477 0 646 -68 372 -221 687 -462 950 l-62 67 344 0
c337 0 344 1 383 23 22 13 49 40 62 62 22 40 23 44 23 441 0 399 0 401 -23
444 -16 30 -37 51 -67 67 l-43 23 -671 -1 -671 0 -65 -32z m1400 -107 c19 -19
20 -33 20 -390 0 -365 0 -370 -21 -391 -22 -22 -22 -22 -443 -17 -236 3 -432
1 -445 -4 -13 -4 -54 -36 -90 -70 l-66 -62 -6 59 c-9 80 -18 85 -148 85 -83 0
-108 3 -123 17 -17 15 -18 40 -18 389 l0 373 22 15 c20 14 99 16 660 16 625 0
638 0 658 -20z m-1793 -687 c102 -211 183 -414 241 -608 34 -114 37 -131 23
-136 -41 -16 -329 -33 -556 -32 -236 0 -367 8 -583 34 -107 13 -101 -4 -45
149 81 218 229 491 366 670 85 111 70 106 313 108 l151 2 90 -187z m209 138
l59 -17 5 -115 c3 -63 11 -124 17 -136 35 -60 130 -104 241 -111 l84 -5 -6
-31 c-3 -17 -8 -61 -12 -99 -6 -57 -4 -70 11 -87 37 -41 66 -28 211 96 l136
116 70 -68 c91 -90 191 -215 181 -225 -31 -31 -769 -206 -789 -187 -2 3 -27
79 -55 169 -57 185 -151 427 -233 602 -31 65 -56 121 -56 124 0 7 69 -6 136
-26z m-923 -78 c-124 -184 -253 -437 -324 -638 -23 -66 -45 -123 -49 -128 -12
-14 -423 73 -543 115 l-37 13 51 65 c176 222 402 404 654 527 105 51 275 116
283 108 2 -2 -14 -30 -35 -62z m2071 -845 c80 -164 119 -274 153 -437 25 -115
27 -145 28 -351 0 -177 -4 -244 -18 -315 -26 -132 -71 -280 -114 -381 -34 -79
-41 -89 -63 -88 -14 1 -104 22 -200 47 -147 39 -415 97 -562 121 l-37 7 6 182
c9 290 -21 671 -77 973 -12 60 -23 123 -27 141 -5 28 -2 33 18 37 13 3 87 17
164 31 166 31 425 94 550 134 50 16 96 30 102 30 7 1 42 -59 77 -131z m-2958
57 c71 -20 206 -52 299 -72 94 -19 171 -36 172 -37 1 0 -9 -46 -23 -101 -57
-240 -69 -358 -69 -675 0 -260 3 -312 23 -439 13 -79 20 -147 15 -151 -4 -4
-60 -17 -123 -29 -106 -21 -451 -104 -485 -118 -30 -11 -126 247 -165 443 -28
139 -37 384 -21 520 16 129 45 255 88 378 37 107 138 316 152 316 5 0 67 -16
137 -35z m835 -160 c303 -31 772 -29 1014 4 33 5 62 7 64 5 17 -16 81 -417
102 -634 11 -123 16 -636 6 -646 -3 -3 -90 2 -193 11 -343 30 -814 20 -1151
-24 l-132 -17 -10 61 c-34 183 -43 332 -38 575 6 259 18 354 72 579 l27 113
48 -6 c26 -4 112 -13 191 -21z m1064 -1387 l110 -13 -2 -65 c-5 -151 -91 -556
-173 -812 l-40 -126 -89 -16 c-132 -25 -305 -38 -401 -31 -111 7 -255 26 -267
34 -15 10 -156 239 -211 341 -28 52 -70 142 -95 200 -69 163 -158 442 -145
455 6 6 239 34 373 45 148 12 803 3 940 -12z m475 -74 c117 -22 518 -119 527
-127 6 -7 -100 -158 -175 -248 -168 -200 -402 -371 -653 -477 -52 -22 -104
-43 -116 -47 l-22 -6 23 69 c35 102 91 328 120 482 23 119 56 348 56 384 0 15
6 14 240 -30z m-1903 -44 c58 -234 212 -601 343 -814 l39 -65 -72 26 c-40 14
-123 50 -184 80 l-113 56 0 95 c0 117 -13 161 -62 216 -56 65 -98 78 -261 84
l-139 5 -40 51 c-53 66 -132 185 -127 190 17 15 549 137 583 133 15 -2 23 -15
33 -57z m-180 -460 c61 -37 62 -43 63 -414 2 -368 2 -365 -57 -403 -25 -16
-61 -18 -378 -19 -192 -1 -374 -2 -403 -3 -50 -1 -57 -4 -110 -54 -31 -29 -79
-71 -107 -94 l-50 -41 3 75 c4 92 -9 113 -72 113 -63 0 -109 17 -142 51 l-29
30 -3 339 c-3 376 -2 382 61 420 31 19 54 20 612 20 558 0 581 -1 612 -20z"/>
<path d="M4066 4848 c-8 -13 -22 -51 -31 -85 l-18 -63 -103 0 c-56 0 -114 -4
-129 -10 -34 -13 -49 -53 -33 -88 13 -26 17 -27 115 -32 l101 -5 -29 -64 c-47
-104 -35 -140 51 -158 l35 -6 -50 -18 c-28 -10 -65 -18 -82 -18 -41 -1 -73
-32 -73 -71 0 -42 34 -63 91 -54 68 9 162 42 211 73 l46 29 53 -30 c30 -17 65
-39 78 -49 52 -41 101 -17 101 49 0 25 -9 35 -57 65 -32 20 -64 40 -71 45 -10
7 -6 22 18 67 17 32 35 77 41 101 11 43 12 44 54 44 56 0 77 20 73 69 -4 53
-29 61 -185 61 l-131 0 14 47 c8 25 14 56 14 68 0 51 -77 75 -104 33z m139
-315 c-21 -50 -57 -103 -70 -102 -5 0 -26 8 -46 17 l-37 17 20 53 21 52 63 0
64 0 -15 -37z"/>
<path d="M923 1078 c-48 -68 -122 -172 -165 -231 -80 -111 -94 -151 -64 -176
8 -7 30 -11 48 -9 27 2 41 13 78 65 l45 62 135 0 135 1 24 -58 c31 -73 48 -92
82 -92 35 0 59 24 59 58 0 29 -196 483 -214 494 -6 4 -25 8 -43 8 -29 0 -39
-10 -120 -122z"/>
<path d="M1510 4520 c-11 -11 -20 -23 -20 -27 0 -37 41 -247 50 -259 29 -34
100 -7 100 38 0 49 -33 225 -46 246 -18 28 -57 29 -84 2z"/>
<path d="M1192 4494 c-13 -8 -22 -26 -22 -40 0 -37 168 -354 194 -365 32 -15
74 4 82 38 6 23 -7 57 -75 188 -102 197 -123 218 -179 179z"/>
<path d="M985 4130 c-34 -37 -23 -67 56 -146 41 -41 84 -77 97 -80 36 -10 72
20 72 60 0 30 -10 44 -82 110 -87 79 -113 90 -143 56z"/>
</g>
</svg>
