<?xml version="1.0" encoding="UTF-8"?>
<svg xmlns="http://www.w3.org/2000/svg" xmlns:xlink="http://www.w3.org/1999/xlink" width="30px" height="30px" viewBox="0 0 30 30" version="1.1">
<g id="surface1">
<path style=" stroke:none;fill-rule:nonzero;fill:rgb(0%,0%,0%);fill-opacity:1;" d="M 14.125 0.109375 C 13.421875 0.375 12.914062 0.835938 12.578125 1.515625 C 12.398438 1.890625 12.390625 1.929688 12.363281 2.894531 L 12.335938 3.882812 L 11.953125 4.015625 C 9.585938 4.816406 7.5 6.808594 6.554688 9.171875 C 6.070312 10.390625 5.917969 11.273438 5.917969 12.949219 C 5.914062 14.507812 5.835938 15.902344 5.710938 16.671875 C 5.328125 19.117188 4.234375 21.507812 2.679688 23.351562 C 1.773438 24.410156 1.816406 24.34375 1.816406 24.714844 C 1.816406 25.089844 1.929688 25.3125 2.203125 25.492188 C 2.367188 25.601562 2.730469 25.605469 15 25.605469 C 27.269531 25.605469 27.632812 25.601562 27.796875 25.492188 C 28.070312 25.3125 28.183594 25.089844 28.183594 24.714844 C 28.183594 24.34375 28.226562 24.410156 27.320312 23.351562 C 25.984375 21.773438 24.925781 19.632812 24.46875 17.609375 C 24.210938 16.464844 24.132812 15.679688 24.105469 13.679688 C 24.078125 11.625 24.035156 11.15625 23.804688 10.289062 C 23.375 8.617188 22.582031 7.28125 21.289062 6.03125 C 20.34375 5.121094 19.230469 4.421875 18.078125 4.019531 L 17.664062 3.878906 L 17.636719 2.890625 C 17.609375 1.914062 17.601562 1.898438 17.40625 1.492188 C 17.144531 0.953125 16.679688 0.492188 16.140625 0.234375 C 15.761719 0.046875 15.679688 0.03125 15.085938 0.015625 C 14.5625 0 14.382812 0.015625 14.125 0.109375 Z M 15.421875 1.914062 C 15.726562 2.097656 15.832031 2.351562 15.867188 2.964844 L 15.898438 3.515625 L 14.101562 3.515625 L 14.132812 2.964844 C 14.167969 2.355469 14.261719 2.132812 14.566406 1.929688 C 14.78125 1.789062 15.1875 1.78125 15.421875 1.914062 Z M 15.421875 1.914062 "/>
<path style=" stroke:none;fill-rule:nonzero;fill:rgb(0%,0%,0%);fill-opacity:1;" d="M 5.90625 3.09375 C 5.515625 3.273438 4.347656 4.671875 3.6875 5.753906 C 2.519531 7.65625 1.816406 10.109375 1.816406 12.234375 C 1.816406 12.992188 1.867188 13.140625 2.203125 13.367188 C 2.429688 13.515625 2.941406 13.515625 3.1875 13.367188 C 3.523438 13.15625 3.578125 12.976562 3.632812 11.988281 C 3.785156 9.3125 4.835938 6.820312 6.609375 4.914062 C 7.078125 4.417969 7.207031 4.1875 7.207031 3.898438 C 7.207031 3.226562 6.523438 2.804688 5.90625 3.09375 Z M 5.90625 3.09375 "/>
<path style=" stroke:none;fill-rule:nonzero;fill:rgb(0%,0%,0%);fill-opacity:1;" d="M 23.25 3.109375 C 22.851562 3.316406 22.679688 3.882812 22.886719 4.296875 C 22.945312 4.398438 23.167969 4.675781 23.390625 4.914062 C 25.164062 6.820312 26.203125 9.273438 26.359375 11.96875 C 26.425781 12.976562 26.476562 13.160156 26.8125 13.367188 C 27.058594 13.515625 27.570312 13.515625 27.796875 13.367188 C 28.132812 13.140625 28.183594 12.992188 28.183594 12.234375 C 28.183594 10.109375 27.480469 7.65625 26.3125 5.753906 C 25.652344 4.671875 24.484375 3.273438 24.09375 3.09375 C 23.8125 2.960938 23.519531 2.964844 23.25 3.109375 Z M 23.25 3.109375 "/>
<path style=" stroke:none;fill-rule:nonzero;fill:rgb(0%,0%,0%);fill-opacity:1;" d="M 10.980469 27.460938 C 11.203125 28.046875 12.140625 29.078125 12.78125 29.4375 C 13.488281 29.824219 13.9375 29.953125 14.796875 29.984375 C 15.71875 30.023438 16.273438 29.90625 17.050781 29.519531 C 17.449219 29.320312 17.65625 29.164062 18.078125 28.742188 C 18.539062 28.277344 18.890625 27.796875 19.019531 27.460938 C 19.054688 27.367188 18.835938 27.363281 15 27.363281 C 11.164062 27.363281 10.945312 27.367188 10.980469 27.460938 Z M 10.980469 27.460938 "/>
</g>
</svg>
