<?xml version="1.0" encoding="UTF-8"?>
<svg xmlns="http://www.w3.org/2000/svg" xmlns:xlink="http://www.w3.org/1999/xlink" width="30px" height="30px" viewBox="0 0 30 30" version="1.1">
<g id="surface1">
<path style=" stroke:none;fill-rule:nonzero;fill:rgb(0%,0%,0%);fill-opacity:1;" d="M 13.007812 0.152344 C 10.148438 0.546875 7.3125 1.835938 5.1875 3.726562 C 2.351562 6.242188 0.710938 9.265625 0.132812 13.007812 C -0.0078125 13.945312 -0.0078125 16.054688 0.132812 16.992188 C 0.570312 19.796875 1.59375 22.183594 3.28125 24.296875 C 3.738281 24.867188 4.859375 26.027344 4.929688 26.003906 C 4.953125 25.992188 7.03125 23.445312 9.546875 20.332031 L 14.121094 14.679688 L 14.121094 0.0585938 L 13.875 0.0625 C 13.734375 0.0703125 13.347656 0.105469 13.007812 0.152344 Z M 13.007812 0.152344 "/>
<path style=" stroke:none;fill-rule:nonzero;fill:rgb(0%,0%,0%);fill-opacity:1;" d="M 19.804688 8.261719 L 19.804688 14.121094 L 22.03125 14.121094 L 22.03125 2.402344 L 19.804688 2.402344 Z M 19.804688 8.261719 "/>
<path style=" stroke:none;fill-rule:nonzero;fill:rgb(0%,0%,0%);fill-opacity:1;" d="M 15.878906 10.371094 L 15.878906 14.121094 L 18.046875 14.121094 L 18.046875 6.621094 L 15.878906 6.621094 Z M 15.878906 10.371094 "/>
<path style=" stroke:none;fill-rule:nonzero;fill:rgb(0%,0%,0%);fill-opacity:1;" d="M 23.789062 11.25 L 23.789062 14.121094 L 25.957031 14.121094 L 25.957031 8.378906 L 23.789062 8.378906 Z M 23.789062 11.25 "/>
<path style=" stroke:none;fill-rule:nonzero;fill:rgb(0%,0%,0%);fill-opacity:1;" d="M 27.714844 12.421875 L 27.714844 14.121094 L 30 14.121094 L 30 10.722656 L 27.714844 10.722656 Z M 27.714844 12.421875 "/>
<path style=" stroke:none;fill-rule:nonzero;fill:rgb(0%,0%,0%);fill-opacity:1;" d="M 15.878906 22.914062 L 15.878906 29.960938 L 16.335938 29.917969 C 18.691406 29.71875 21.148438 28.859375 23.140625 27.539062 C 24.0625 26.929688 24.632812 26.46875 25.421875 25.699219 C 27.835938 23.335938 29.3125 20.484375 29.824219 17.1875 C 29.890625 16.773438 29.941406 16.3125 29.941406 16.15625 L 29.941406 15.878906 L 15.878906 15.878906 Z M 15.878906 22.914062 "/>
<path style=" stroke:none;fill-rule:nonzero;fill:rgb(0%,0%,0%);fill-opacity:1;" d="M 10.226562 22.300781 C 8.097656 24.929688 6.359375 27.117188 6.359375 27.152344 C 6.359375 27.363281 8.71875 28.652344 9.925781 29.09375 C 11.015625 29.496094 13.113281 29.941406 13.90625 29.941406 L 14.121094 29.941406 L 14.121094 23.730469 C 14.121094 20.3125 14.117188 17.519531 14.109375 17.519531 C 14.097656 17.519531 12.351562 19.671875 10.226562 22.300781 Z M 10.226562 22.300781 "/>
</g>
</svg>
