<?xml version="1.0" encoding="UTF-8"?>
<svg xmlns="http://www.w3.org/2000/svg" xmlns:xlink="http://www.w3.org/1999/xlink" width="30px" height="30px" viewBox="0 0 30 30" version="1.1">
<g id="surface1">
<path style=" stroke:none;fill-rule:nonzero;fill:rgb(0%,0%,0%);fill-opacity:1;" d="M 6.339844 1.03125 C 6.265625 1.085938 6.179688 1.183594 6.152344 1.253906 C 6.117188 1.347656 6.246094 2.164062 6.570312 3.902344 C 7.359375 8.1875 7.46875 9.179688 7.46875 11.953125 C 7.464844 13.882812 7.417969 14.671875 7.203125 16.230469 C 6.859375 18.65625 6.550781 19.921875 5.382812 23.515625 L 4.796875 25.3125 L 3.078125 25.3125 C 1.921875 25.3125 1.304688 25.335938 1.207031 25.375 C 1.132812 25.417969 1.03125 25.515625 0.996094 25.609375 C 0.929688 25.757812 0.960938 25.886719 1.230469 26.6875 C 1.585938 27.765625 1.84375 28.164062 2.449219 28.578125 C 3.179688 29.074219 2.171875 29.03125 13.390625 29.050781 C 20.609375 29.0625 23.449219 29.050781 23.703125 29.003906 C 24.664062 28.820312 25.441406 28.136719 25.78125 27.175781 C 26.085938 26.289062 27.640625 21.421875 27.832031 20.710938 C 29.0625 16.3125 29.351562 11.445312 28.652344 6.90625 C 28.484375 5.777344 27.664062 1.398438 27.59375 1.226562 C 27.554688 1.136719 27.460938 1.042969 27.386719 1 C 27.28125 0.953125 24.453125 0.9375 16.859375 0.9375 C 7.429688 0.9375 6.457031 0.945312 6.339844 1.03125 Z M 27.234375 4.207031 C 27.726562 6.875 27.789062 7.289062 27.914062 8.378906 C 28.371094 12.433594 28.007812 16.75 26.890625 20.65625 C 26.542969 21.859375 24.914062 26.882812 24.78125 27.171875 C 24.539062 27.667969 23.941406 28.0625 23.34375 28.113281 C 22.835938 28.15625 22.398438 28 22.023438 27.667969 C 21.679688 27.359375 21.539062 27.09375 21.246094 26.21875 C 21.128906 25.863281 21.011719 25.546875 20.988281 25.511719 C 20.859375 25.3125 20.753906 25.3125 13.25 25.3125 C 9.152344 25.3125 5.800781 25.296875 5.800781 25.273438 C 5.800781 25.25 6.023438 24.546875 6.292969 23.707031 C 6.5625 22.863281 6.878906 21.875 6.996094 21.503906 C 8.0625 18.023438 8.5625 14.09375 8.390625 10.53125 C 8.285156 8.332031 8.15625 7.375 7.5 3.855469 C 7.304688 2.8125 7.148438 1.933594 7.148438 1.914062 C 7.148438 1.890625 11.570312 1.875 16.980469 1.875 L 26.804688 1.875 Z M 27.234375 4.207031 "/>
<path style=" stroke:none;fill-rule:nonzero;fill:rgb(0%,0%,0%);fill-opacity:1;" d="M 17.421875 3.363281 C 15.410156 3.75 13.890625 5.117188 13.328125 7.0625 C 13.046875 8.046875 13.078125 9.0625 13.417969 10.101562 C 13.675781 10.863281 14.054688 11.472656 14.664062 12.085938 C 14.953125 12.375 15.175781 12.617188 15.164062 12.621094 C 15.152344 12.632812 14.777344 12.75 14.328125 12.890625 C 13.875 13.023438 13.5 13.140625 13.488281 13.15625 C 13.441406 13.195312 13.726562 14.003906 13.789062 14.003906 C 13.828125 14.003906 14.492188 13.804688 15.265625 13.5625 C 16.71875 13.117188 16.875 13.039062 16.875 12.75 C 16.875 12.539062 16.71875 12.375 16.273438 12.148438 C 15.972656 11.992188 15.695312 11.777344 15.316406 11.402344 C 14.851562 10.945312 14.742188 10.792969 14.515625 10.3125 C 13.910156 9.046875 13.90625 7.789062 14.496094 6.59375 C 14.917969 5.742188 15.503906 5.132812 16.304688 4.710938 C 16.921875 4.390625 17.351562 4.273438 18.078125 4.234375 C 19.347656 4.171875 20.332031 4.558594 21.246094 5.476562 C 21.703125 5.9375 21.828125 6.101562 22.046875 6.570312 C 22.664062 7.839844 22.640625 9.179688 21.984375 10.460938 C 21.691406 11.023438 20.867188 11.847656 20.304688 12.140625 C 19.78125 12.410156 19.203125 12.585938 18.6875 12.632812 L 18.28125 12.671875 L 18.28125 13.609375 L 18.695312 13.570312 C 20.53125 13.390625 22.113281 12.304688 22.890625 10.695312 C 23.285156 9.878906 23.398438 9.375 23.398438 8.4375 C 23.398438 7.488281 23.28125 6.984375 22.882812 6.171875 C 22.21875 4.828125 20.976562 3.8125 19.539062 3.457031 C 18.929688 3.296875 17.96875 3.257812 17.421875 3.363281 Z M 17.421875 3.363281 "/>
<path style=" stroke:none;fill-rule:nonzero;fill:rgb(0%,0%,0%);fill-opacity:1;" d="M 15.996094 5.753906 C 15.601562 5.953125 15.46875 6.257812 15.46875 6.953125 L 15.46875 7.5 L 16.40625 7.5 L 16.40625 6.5625 L 17.34375 6.5625 L 17.34375 7.957031 L 17.171875 8.023438 C 16.90625 8.140625 16.875 8.28125 16.875 9.609375 C 16.875 10.910156 16.90625 11.074219 17.148438 11.1875 C 17.34375 11.273438 20.15625 11.273438 20.351562 11.1875 C 20.59375 11.074219 20.625 10.910156 20.625 9.609375 C 20.625 8.835938 20.601562 8.332031 20.5625 8.242188 C 20.453125 8.003906 20.273438 7.96875 19.25 7.96875 L 18.28125 7.96875 L 18.28125 7.1875 C 18.28125 6.5 18.265625 6.382812 18.152344 6.152344 C 17.945312 5.742188 17.65625 5.625 16.875 5.625 C 16.347656 5.625 16.21875 5.640625 15.996094 5.753906 Z M 15.996094 5.753906 "/>
<path style=" stroke:none;fill-rule:nonzero;fill:rgb(0%,0%,0%);fill-opacity:1;" d="M 9.375 15.9375 L 9.375 16.40625 L 11.25 16.40625 L 11.25 15.46875 L 9.375 15.46875 Z M 9.375 15.9375 "/>
<path style=" stroke:none;fill-rule:nonzero;fill:rgb(0%,0%,0%);fill-opacity:1;" d="M 12.1875 15.9375 L 12.1875 16.40625 L 26.71875 16.40625 L 26.71875 15.46875 L 12.1875 15.46875 Z M 12.1875 15.9375 "/>
<path style=" stroke:none;fill-rule:nonzero;fill:rgb(0%,0%,0%);fill-opacity:1;" d="M 8.90625 18.28125 L 8.90625 18.75 L 10.78125 18.75 L 10.78125 17.8125 L 8.90625 17.8125 Z M 8.90625 18.28125 "/>
<path style=" stroke:none;fill-rule:nonzero;fill:rgb(0%,0%,0%);fill-opacity:1;" d="M 11.71875 18.28125 L 11.71875 18.75 L 26.25 18.75 L 26.25 17.8125 L 11.71875 17.8125 Z M 11.71875 18.28125 "/>
<path style=" stroke:none;fill-rule:nonzero;fill:rgb(0%,0%,0%);fill-opacity:1;" d="M 8.4375 20.625 L 8.4375 21.09375 L 10.3125 21.09375 L 10.3125 20.15625 L 8.4375 20.15625 Z M 8.4375 20.625 "/>
<path style=" stroke:none;fill-rule:nonzero;fill:rgb(0%,0%,0%);fill-opacity:1;" d="M 11.25 20.625 L 11.25 21.09375 L 25.3125 21.09375 L 25.3125 20.15625 L 11.25 20.15625 Z M 11.25 20.625 "/>
<path style=" stroke:none;fill-rule:nonzero;fill:rgb(0%,0%,0%);fill-opacity:1;" d="M 7.96875 22.96875 L 7.96875 23.4375 L 9.84375 23.4375 L 9.84375 22.5 L 7.96875 22.5 Z M 7.96875 22.96875 "/>
<path style=" stroke:none;fill-rule:nonzero;fill:rgb(0%,0%,0%);fill-opacity:1;" d="M 10.78125 22.96875 L 10.78125 23.4375 L 24.375 23.4375 L 24.375 22.5 L 10.78125 22.5 Z M 10.78125 22.96875 "/>
</g>
</svg>
