<?xml version="1.0" encoding="UTF-8"?>
<svg xmlns="http://www.w3.org/2000/svg" xmlns:xlink="http://www.w3.org/1999/xlink" width="30px" height="30px" viewBox="0 0 30 30" version="1.1">
<g id="surface1">
<path style=" stroke:none;fill-rule:nonzero;fill:rgb(0%,0%,0%);fill-opacity:1;" d="M 10.664062 0.03125 C 10.617188 0.0390625 10.382812 0.0820312 10.140625 0.117188 C 7.816406 0.5 5.820312 2.34375 5.21875 4.65625 C 4.382812 7.898438 6.21875 11.203125 9.40625 12.203125 C 10.773438 12.640625 12.367188 12.550781 13.722656 11.984375 C 15.105469 11.398438 16.414062 10.089844 16.984375 8.703125 C 18.507812 5.046875 16.382812 0.972656 12.515625 0.140625 C 12.128906 0.0585938 10.863281 -0.0234375 10.664062 0.03125 Z M 10.664062 0.03125 "/>
<path style=" stroke:none;fill-rule:nonzero;fill:rgb(0%,0%,0%);fill-opacity:1;" d="M 5.332031 15.035156 C 3.742188 15.289062 2.742188 15.765625 1.75 16.75 C 0.929688 17.578125 0.429688 18.492188 0.132812 19.6875 C 0.0585938 20 0.0351562 20.554688 0.015625 22.765625 L -0.0078125 25.460938 L 0.128906 25.722656 C 0.226562 25.914062 0.335938 26.023438 0.527344 26.121094 L 0.785156 26.25 L 7.664062 26.25 C 11.445312 26.25 14.53125 26.234375 14.519531 26.203125 C 14.507812 26.179688 14.429688 26.027344 14.34375 25.863281 C 13.859375 24.929688 13.90625 23.707031 14.46875 22.792969 L 14.648438 22.5 L 14.46875 22.207031 C 14.179688 21.738281 14.050781 21.296875 14.023438 20.683594 C 13.984375 19.882812 14.09375 19.5625 14.859375 18.203125 C 15.398438 17.257812 15.570312 17.007812 15.9375 16.632812 C 16.585938 15.976562 17.226562 15.703125 18.117188 15.703125 C 18.515625 15.703125 18.578125 15.691406 18.632812 15.578125 C 18.671875 15.515625 18.691406 15.453125 18.679688 15.4375 C 18.597656 15.367188 18.335938 15.273438 17.917969 15.164062 C 17.429688 15.035156 17.421875 15.035156 11.453125 15.023438 C 8.167969 15.015625 5.414062 15.023438 5.332031 15.035156 Z M 5.332031 15.035156 "/>
<path style=" stroke:none;fill-rule:nonzero;fill:rgb(0%,0%,0%);fill-opacity:1;" d="M 21.359375 16.273438 C 20.988281 16.367188 20.898438 16.546875 20.800781 17.402344 C 20.707031 18.199219 20.710938 18.195312 20.449219 18.3125 C 20.320312 18.367188 20.09375 18.5 19.9375 18.601562 L 19.664062 18.785156 L 19 18.503906 C 18.28125 18.199219 17.964844 18.152344 17.757812 18.320312 C 17.695312 18.382812 17.390625 18.859375 17.078125 19.394531 C 16.3125 20.730469 16.3125 20.742188 17.296875 21.46875 L 17.847656 21.878906 L 17.847656 23.121094 L 17.296875 23.53125 C 16.3125 24.257812 16.3125 24.269531 17.078125 25.605469 C 17.390625 26.140625 17.695312 26.617188 17.757812 26.671875 C 17.964844 26.847656 18.28125 26.800781 19 26.496094 L 19.664062 26.214844 L 19.957031 26.40625 C 20.117188 26.515625 20.34375 26.648438 20.46875 26.703125 C 20.710938 26.8125 20.710938 26.804688 20.800781 27.597656 C 20.9375 28.742188 20.929688 28.734375 22.359375 28.757812 C 23.539062 28.78125 23.851562 28.734375 24 28.5 C 24.058594 28.417969 24.140625 28.042969 24.199219 27.597656 C 24.25 27.175781 24.3125 26.824219 24.320312 26.8125 C 24.335938 26.800781 24.480469 26.726562 24.640625 26.640625 C 24.804688 26.5625 25.019531 26.429688 25.132812 26.351562 L 25.328125 26.214844 L 26 26.496094 C 26.765625 26.820312 27.058594 26.851562 27.265625 26.648438 C 27.507812 26.398438 28.476562 24.640625 28.476562 24.4375 C 28.476562 24.152344 28.40625 24.070312 27.757812 23.566406 L 27.152344 23.101562 L 27.15625 22.5 L 27.164062 21.890625 L 27.714844 21.460938 C 28.019531 21.226562 28.320312 20.984375 28.375 20.914062 C 28.582031 20.660156 28.511719 20.425781 27.921875 19.394531 C 27.609375 18.859375 27.304688 18.382812 27.242188 18.320312 C 27.035156 18.152344 26.726562 18.199219 26.003906 18.507812 L 25.34375 18.789062 L 25.109375 18.632812 C 24.976562 18.546875 24.757812 18.414062 24.609375 18.339844 C 24.460938 18.269531 24.335938 18.199219 24.320312 18.1875 C 24.3125 18.175781 24.25 17.824219 24.199219 17.402344 C 24.082031 16.546875 24.011719 16.382812 23.6875 16.296875 C 23.472656 16.230469 21.585938 16.21875 21.359375 16.273438 Z M 22.921875 20.046875 C 23.414062 20.148438 23.847656 20.382812 24.203125 20.734375 C 25.1875 21.71875 25.1875 23.28125 24.203125 24.265625 C 23.824219 24.640625 23.382812 24.867188 22.835938 24.96875 C 21.226562 25.265625 19.703125 23.757812 19.976562 22.140625 C 20.101562 21.359375 20.570312 20.679688 21.222656 20.332031 C 21.804688 20.015625 22.351562 19.929688 22.921875 20.046875 Z M 22.921875 20.046875 "/>
</g>
</svg>
