<?xml version="1.0" encoding="UTF-8"?>
<svg xmlns="http://www.w3.org/2000/svg" xmlns:xlink="http://www.w3.org/1999/xlink" width="30px" height="30px" viewBox="0 0 30 30" version="1.1">
<g id="surface1">
<path style=" stroke:none;fill-rule:nonzero;fill:rgb(0%,0%,0%);fill-opacity:1;" d="M 9.902344 1.910156 C 8.664062 2.140625 7.914062 2.367188 7.0625 2.796875 C 4.464844 4.089844 2.613281 6.476562 2.007812 9.316406 C 1.859375 10.039062 1.859375 12.0625 2.015625 12.773438 C 2.847656 16.605469 5.683594 19.445312 9.40625 20.191406 C 10.140625 20.34375 11.890625 20.34375 12.625 20.195312 C 13.253906 20.070312 13.9375 19.875 14.496094 19.664062 L 14.898438 19.511719 L 15.125 19.710938 C 15.53125 20.085938 15.878906 20.179688 16.273438 20.039062 C 16.488281 19.957031 19.910156 16.546875 20.015625 16.304688 C 20.117188 16.078125 20.121094 15.742188 20.03125 15.570312 C 20 15.5 19.859375 15.328125 19.726562 15.1875 L 19.488281 14.941406 L 19.59375 14.660156 C 20.359375 12.691406 20.515625 10.699219 20.039062 8.820312 C 19.289062 5.828125 16.910156 3.304688 13.914062 2.320312 C 12.921875 2 12.46875 1.929688 11.21875 1.90625 C 10.578125 1.890625 9.984375 1.898438 9.902344 1.910156 Z M 12.6875 3.855469 C 14.988281 4.359375 16.78125 5.734375 17.757812 7.765625 C 18.945312 10.230469 18.761719 12.976562 17.261719 15.234375 C 15.882812 17.304688 13.59375 18.527344 11.101562 18.539062 C 9.140625 18.546875 7.394531 17.84375 5.960938 16.464844 C 4.398438 14.976562 3.5625 12.945312 3.65625 10.867188 C 3.820312 7.09375 6.28125 4.328125 9.992188 3.75 C 10.546875 3.667969 12.078125 3.726562 12.6875 3.855469 Z M 12.6875 3.855469 "/>
<path style=" stroke:none;fill-rule:nonzero;fill:rgb(0%,0%,0%);fill-opacity:1;" d="M 10.136719 4.601562 C 7.507812 5.007812 5.378906 6.890625 4.703125 9.40625 C 4.5625 9.9375 4.546875 10.085938 4.546875 11.074219 C 4.546875 12.078125 4.558594 12.203125 4.710938 12.742188 C 5.390625 15.226562 7.347656 17.054688 9.875 17.566406 C 11.140625 17.824219 12.691406 17.636719 13.863281 17.085938 C 16.019531 16.066406 17.4375 13.984375 17.632812 11.5625 C 17.78125 9.644531 17.15625 7.886719 15.828125 6.515625 C 14.320312 4.960938 12.257812 4.273438 10.136719 4.601562 Z M 11.742188 7.347656 C 11.992188 7.453125 12.128906 7.648438 12.128906 7.90625 C 12.128906 8.171875 11.796875 8.492188 11.359375 8.636719 C 10.957031 8.777344 10.160156 8.824219 9.878906 8.730469 C 9.296875 8.542969 9.289062 7.882812 9.859375 7.578125 C 10.394531 7.296875 11.34375 7.183594 11.742188 7.347656 Z M 12.109375 9.152344 C 12.132812 9.195312 12.171875 10.023438 12.1875 11.003906 L 12.21875 12.78125 L 12.46875 13.015625 C 12.902344 13.429688 12.765625 13.804688 12.125 13.976562 C 11.742188 14.078125 10.570312 14.09375 10.042969 14 C 9.335938 13.875 9.175781 13.507812 9.632812 13.046875 C 9.835938 12.851562 9.902344 12.742188 9.929688 12.523438 C 9.984375 12.195312 9.9375 10.796875 9.875 10.648438 C 9.851562 10.585938 9.757812 10.507812 9.664062 10.453125 C 9.570312 10.40625 9.453125 10.300781 9.398438 10.226562 C 9.316406 10.101562 9.316406 10.046875 9.375 9.898438 C 9.460938 9.691406 9.597656 9.617188 10.226562 9.410156 C 11.148438 9.109375 12.007812 8.992188 12.109375 9.152344 Z M 12.109375 9.152344 "/>
<path style=" stroke:none;fill-rule:nonzero;fill:rgb(0%,0%,0%);fill-opacity:1;" d="M 18.789062 18.832031 L 16.816406 20.820312 L 17.273438 21.382812 C 17.523438 21.691406 18.65625 23.09375 19.792969 24.5 C 20.921875 25.90625 21.992188 27.175781 22.15625 27.320312 C 22.769531 27.855469 23.523438 28.125 24.433594 28.125 C 25.585938 28.125 26.515625 27.71875 27.257812 26.894531 C 27.859375 26.234375 28.125 25.507812 28.125 24.523438 C 28.125 23.613281 27.925781 22.980469 27.410156 22.296875 C 27.203125 22.019531 26.460938 21.386719 24.015625 19.417969 C 22.296875 18.035156 20.867188 16.886719 20.828125 16.867188 C 20.800781 16.851562 19.882812 17.734375 18.789062 18.832031 Z M 18.789062 18.832031 "/>
</g>
</svg>
