<?xml version="1.0" encoding="UTF-8"?>
<svg xmlns="http://www.w3.org/2000/svg" xmlns:xlink="http://www.w3.org/1999/xlink" width="30px" height="30px" viewBox="0 0 30 30" version="1.1">
<g id="surface1">
<path style=" stroke:none;fill-rule:nonzero;fill:rgb(0%,0%,0%);fill-opacity:1;" d="M 14.601562 0.0859375 C 14.5 0.132812 14.15625 0.398438 13.839844 0.671875 C 12.125 2.195312 10.539062 3.085938 8.4375 3.714844 C 7.265625 4.066406 5.378906 4.335938 4.117188 4.335938 C 3.140625 4.335938 2.777344 4.484375 2.5625 4.976562 C 2.445312 5.238281 2.445312 5.355469 2.4375 9.226562 C 2.429688 12.125 2.453125 13.429688 2.507812 14.003906 C 2.820312 17.195312 3.363281 19.347656 4.390625 21.476562 C 5.132812 23.023438 5.917969 24.132812 7.117188 25.367188 C 8.515625 26.796875 9.828125 27.734375 11.8125 28.734375 C 13.15625 29.402344 14.59375 29.960938 15 29.960938 C 15.4375 29.960938 16.898438 29.382812 18.429688 28.605469 C 21.242188 27.175781 23.472656 25.15625 24.945312 22.703125 C 26.328125 20.40625 27.101562 17.804688 27.460938 14.238281 C 27.550781 13.359375 27.570312 12.648438 27.5625 9.226562 C 27.554688 5.351562 27.554688 5.238281 27.4375 4.976562 C 27.222656 4.484375 26.859375 4.335938 25.882812 4.335938 C 24.621094 4.335938 22.828125 4.078125 21.597656 3.71875 C 19.492188 3.109375 17.773438 2.132812 16.042969 0.574219 C 15.421875 0.0117188 15.058594 -0.109375 14.601562 0.0859375 Z M 20.039062 11.117188 C 20.40625 11.515625 20.710938 11.875 20.710938 11.914062 C 20.710938 12.023438 14.148438 18.175781 13.867188 18.328125 C 13.5625 18.5 13.09375 18.484375 12.84375 18.296875 C 12.757812 18.234375 11.914062 17.332031 10.96875 16.289062 L 9.25 14.398438 L 9.59375 14.09375 C 9.78125 13.929688 10.140625 13.601562 10.40625 13.371094 L 10.882812 12.953125 L 12.125 14.34375 C 12.808594 15.105469 13.40625 15.757812 13.445312 15.785156 C 13.5 15.828125 14.328125 15.070312 16.382812 13.109375 C 17.960938 11.609375 19.277344 10.375 19.304688 10.375 C 19.34375 10.382812 19.671875 10.710938 20.039062 11.117188 Z M 20.039062 11.117188 "/>
</g>
</svg>
