<?xml version="1.0" encoding="UTF-8"?>
<svg xmlns="http://www.w3.org/2000/svg" xmlns:xlink="http://www.w3.org/1999/xlink" width="30px" height="30px" viewBox="0 0 30 30" version="1.1">
<g id="surface1">
<path style=" stroke:none;fill-rule:nonzero;fill:rgb(0%,0%,0%);fill-opacity:1;" d="M 12.414062 0.105469 C 11.917969 0.242188 11.425781 0.539062 11.0625 0.929688 C 10.523438 1.515625 10.3125 2.140625 10.3125 3.148438 L 10.3125 3.75 L 7.628906 3.75 C 4.769531 3.75 4.585938 3.765625 4.03125 4.046875 C 3.710938 4.210938 3.265625 4.671875 3.085938 5.015625 C 2.867188 5.460938 2.8125 5.835938 2.8125 7.019531 C 2.8125 8.046875 2.824219 8.140625 2.945312 8.378906 C 3.039062 8.570312 3.148438 8.679688 3.339844 8.773438 L 3.597656 8.90625 L 26.402344 8.90625 L 26.660156 8.773438 C 26.851562 8.679688 26.960938 8.570312 27.058594 8.378906 C 27.175781 8.140625 27.1875 8.046875 27.1875 7 C 27.1875 5.476562 27.0625 5.027344 26.484375 4.445312 C 26.164062 4.125 25.765625 3.90625 25.324219 3.8125 C 25.117188 3.773438 24.101562 3.75 22.351562 3.75 L 19.6875 3.75 L 19.679688 3.117188 C 19.675781 2.046875 19.40625 1.347656 18.757812 0.75 C 18.382812 0.40625 18 0.203125 17.507812 0.0859375 C 16.933594 -0.046875 12.953125 -0.0351562 12.414062 0.105469 Z M 17.378906 2.027344 C 17.730469 2.285156 17.78125 2.421875 17.800781 3.109375 L 17.824219 3.75 L 12.1875 3.75 L 12.1875 3.199219 C 12.1875 2.601562 12.242188 2.398438 12.4375 2.171875 C 12.710938 1.882812 12.765625 1.875 15.070312 1.890625 C 17.140625 1.90625 17.226562 1.910156 17.378906 2.027344 Z M 17.378906 2.027344 "/>
<path style=" stroke:none;fill-rule:nonzero;fill:rgb(0%,0%,0%);fill-opacity:1;" d="M 4.40625 10.851562 C 4.367188 10.890625 4.335938 11.097656 4.335938 11.351562 C 4.335938 11.589844 4.507812 15.351562 4.71875 19.710938 C 5.140625 28.535156 5.09375 28.046875 5.566406 28.757812 C 5.828125 29.148438 6.1875 29.46875 6.601562 29.671875 C 7.242188 29.988281 6.78125 29.96875 15 29.96875 C 22.320312 29.96875 22.65625 29.964844 22.96875 29.859375 C 23.589844 29.648438 24.085938 29.273438 24.433594 28.757812 C 24.90625 28.046875 24.859375 28.539062 25.28125 19.6875 C 25.492188 15.3125 25.664062 11.546875 25.664062 11.328125 C 25.664062 11.09375 25.632812 10.890625 25.59375 10.851562 C 25.492188 10.75 4.507812 10.75 4.40625 10.851562 Z M 10.828125 12.34375 C 10.910156 12.40625 11.03125 12.53125 11.097656 12.621094 C 11.21875 12.78125 11.21875 12.808594 11.21875 19.21875 C 11.21875 25.628906 11.21875 25.65625 11.097656 25.816406 C 10.867188 26.125 10.679688 26.21875 10.3125 26.21875 C 9.945312 26.21875 9.757812 26.125 9.527344 25.816406 C 9.40625 25.65625 9.40625 25.609375 9.386719 19.375 C 9.382812 15.921875 9.386719 13.015625 9.40625 12.90625 C 9.445312 12.671875 9.691406 12.375 9.929688 12.269531 C 10.164062 12.15625 10.632812 12.199219 10.828125 12.34375 Z M 15.515625 12.34375 C 15.597656 12.40625 15.71875 12.53125 15.785156 12.621094 C 15.90625 12.78125 15.90625 12.808594 15.90625 19.21875 C 15.90625 25.628906 15.90625 25.65625 15.785156 25.816406 C 15.554688 26.125 15.367188 26.21875 15 26.21875 C 14.632812 26.21875 14.445312 26.125 14.214844 25.816406 C 14.09375 25.65625 14.09375 25.609375 14.074219 19.375 C 14.070312 15.921875 14.074219 13.015625 14.09375 12.90625 C 14.132812 12.671875 14.378906 12.375 14.617188 12.269531 C 14.851562 12.15625 15.320312 12.199219 15.515625 12.34375 Z M 20.203125 12.34375 C 20.285156 12.40625 20.40625 12.53125 20.472656 12.621094 C 20.59375 12.78125 20.59375 12.808594 20.59375 19.21875 C 20.59375 25.628906 20.59375 25.65625 20.472656 25.816406 C 20.242188 26.125 20.054688 26.21875 19.6875 26.21875 C 19.320312 26.21875 19.132812 26.125 18.902344 25.816406 C 18.78125 25.65625 18.78125 25.609375 18.761719 19.375 C 18.757812 15.921875 18.761719 13.015625 18.78125 12.90625 C 18.820312 12.671875 19.066406 12.375 19.304688 12.269531 C 19.539062 12.15625 20.007812 12.199219 20.203125 12.34375 Z M 20.203125 12.34375 "/>
</g>
</svg>
