<?xml version="1.0" encoding="UTF-8"?>
<svg xmlns="http://www.w3.org/2000/svg" xmlns:xlink="http://www.w3.org/1999/xlink" width="30px" height="30px" viewBox="0 0 30 30" version="1.1">
<g id="surface1">
<path style=" stroke:none;fill-rule:nonzero;fill:rgb(0%,0%,0%);fill-opacity:1;" d="M 14.238281 0.0351562 C 13.207031 0.171875 12.292969 0.4375 11.460938 0.859375 C 10.65625 1.265625 10.113281 1.65625 9.429688 2.34375 C 8.285156 3.480469 7.601562 4.75 7.253906 6.34375 C 7.070312 7.195312 7.070312 8.625 7.253906 9.476562 C 7.484375 10.535156 7.910156 11.53125 8.515625 12.414062 C 8.898438 12.984375 9.921875 14.007812 10.488281 14.398438 C 11.398438 15.011719 12.480469 15.460938 13.578125 15.6875 C 14.34375 15.835938 15.78125 15.820312 16.5625 15.65625 C 18.15625 15.316406 19.429688 14.625 20.566406 13.484375 C 21.71875 12.320312 22.398438 11.070312 22.746094 9.476562 C 22.929688 8.625 22.929688 7.195312 22.746094 6.34375 C 22.398438 4.75 21.71875 3.5 20.566406 2.335938 C 19.089844 0.855469 17.289062 0.0820312 15.203125 0.03125 C 14.789062 0.015625 14.351562 0.0234375 14.238281 0.0351562 Z M 14.238281 0.0351562 "/>
<path style=" stroke:none;fill-rule:nonzero;fill:rgb(0%,0%,0%);fill-opacity:1;" d="M 11.882812 17.671875 C 6.597656 18.3125 2.414062 22.648438 1.882812 28.03125 C 1.789062 28.957031 1.796875 29.21875 1.9375 29.507812 C 2.027344 29.6875 2.125 29.789062 2.308594 29.875 L 2.554688 30 L 27.445312 30 L 27.691406 29.875 C 28 29.730469 28.183594 29.398438 28.183594 28.960938 C 28.183594 28 27.9375 26.585938 27.59375 25.515625 C 26.171875 21.179688 22.347656 18.101562 17.820312 17.636719 C 16.914062 17.546875 12.726562 17.570312 11.882812 17.671875 Z M 11.882812 17.671875 "/>
</g>
</svg>
