<?xml version="1.0" encoding="UTF-8"?>
<svg xmlns="http://www.w3.org/2000/svg" xmlns:xlink="http://www.w3.org/1999/xlink" width="30px" height="30px" viewBox="0 0 30 30" version="1.1">
<g id="surface1">
<path style=" stroke:none;fill-rule:nonzero;fill:rgb(0%,0%,0%);fill-opacity:1;" d="M 3.976562 1.980469 C 2.988281 2.242188 2.203125 3.054688 1.960938 4.054688 C 1.835938 4.609375 1.835938 24.453125 1.960938 25.007812 C 2.203125 26.007812 2.988281 26.820312 3.976562 27.082031 C 4.335938 27.171875 4.945312 27.179688 11.398438 27.1875 L 18.429688 27.1875 L 18.984375 27.632812 C 19.648438 28.160156 20.09375 28.390625 20.671875 28.488281 C 21.199219 28.578125 21.78125 28.492188 22.296875 28.25 C 22.710938 28.054688 26.648438 24.921875 27.226562 24.320312 C 28.140625 23.390625 28.773438 22.101562 28.976562 20.757812 C 29.078125 20.074219 29.101562 15.339844 29.003906 14.820312 C 28.859375 14.027344 28.230469 13.183594 27.539062 12.855469 L 27.1875 12.6875 L 27.1875 8.523438 C 27.179688 3.882812 27.179688 3.929688 26.777344 3.257812 C 26.53125 2.851562 26.050781 2.390625 25.65625 2.191406 C 25 1.863281 25.507812 1.875 14.5 1.882812 C 5.117188 1.882812 4.335938 1.886719 3.976562 1.980469 Z M 10.324219 5.988281 L 10.34375 8.234375 L 10.507812 8.566406 C 10.816406 9.199219 11.476562 9.609375 12.179688 9.609375 C 12.632812 9.609375 12.878906 9.515625 13.742188 9.023438 C 14.132812 8.796875 14.492188 8.613281 14.53125 8.613281 C 14.570312 8.613281 14.929688 8.796875 15.320312 9.023438 C 16.183594 9.515625 16.429688 9.609375 16.882812 9.609375 C 17.585938 9.609375 18.222656 9.210938 18.546875 8.578125 L 18.71875 8.234375 L 18.757812 3.742188 L 21.738281 3.761719 C 24.644531 3.78125 24.71875 3.785156 24.878906 3.902344 C 24.96875 3.96875 25.09375 4.09375 25.160156 4.183594 C 25.28125 4.34375 25.28125 4.414062 25.300781 8.121094 C 25.304688 10.195312 25.296875 11.894531 25.265625 11.894531 C 25.242188 11.894531 24.5625 11.632812 23.757812 11.308594 C 22.953125 10.984375 22.125 10.671875 21.921875 10.605469 C 21.503906 10.476562 20.796875 10.445312 20.421875 10.554688 C 19.984375 10.671875 14.648438 12.832031 14.40625 12.984375 C 13.828125 13.347656 13.3125 14.121094 13.183594 14.820312 C 13.085938 15.339844 13.109375 20.074219 13.210938 20.757812 C 13.304688 21.382812 13.554688 22.195312 13.804688 22.6875 C 14.226562 23.539062 15.011719 24.480469 15.761719 25.054688 L 16.0625 25.28125 L 10.359375 25.300781 C 7.226562 25.304688 4.578125 25.300781 4.46875 25.28125 C 4.230469 25.242188 3.929688 24.992188 3.832031 24.742188 C 3.761719 24.585938 3.75 22.863281 3.75 14.539062 C 3.75 7.582031 3.765625 4.46875 3.8125 4.351562 C 3.898438 4.136719 4.089844 3.925781 4.304688 3.832031 C 4.445312 3.773438 5.097656 3.757812 7.394531 3.75 L 10.304688 3.75 Z M 24.765625 15.585938 C 25.039062 15.703125 25.230469 15.960938 25.289062 16.277344 C 25.371094 16.71875 25.320312 16.789062 23.132812 18.96875 C 20.90625 21.179688 20.929688 21.164062 20.425781 21.070312 C 20.203125 21.03125 18.109375 19.488281 17.953125 19.25 C 17.898438 19.171875 17.847656 19 17.828125 18.878906 C 17.742188 18.242188 18.304688 17.710938 18.945312 17.835938 C 19.054688 17.859375 19.429688 18.085938 19.839844 18.390625 L 20.539062 18.914062 L 22.207031 17.257812 C 23.125 16.34375 23.941406 15.5625 24.023438 15.53125 C 24.25 15.445312 24.5 15.460938 24.765625 15.585938 Z M 24.765625 15.585938 "/>
<path style=" stroke:none;fill-rule:nonzero;fill:rgb(0%,0%,0%);fill-opacity:1;" d="M 6.28125 17.851562 C 6.203125 17.871094 6.039062 17.984375 5.917969 18.105469 C 5.609375 18.414062 5.554688 18.75 5.75 19.140625 C 5.851562 19.351562 5.953125 19.460938 6.152344 19.554688 C 6.40625 19.679688 6.46875 19.6875 7.96875 19.6875 C 9.46875 19.6875 9.53125 19.679688 9.785156 19.554688 C 10.066406 19.414062 10.3125 19.039062 10.3125 18.75 C 10.3125 18.460938 10.066406 18.085938 9.785156 17.941406 C 9.53125 17.820312 9.476562 17.8125 7.96875 17.820312 C 7.113281 17.824219 6.359375 17.84375 6.28125 17.851562 Z M 6.28125 17.851562 "/>
<path style=" stroke:none;fill-rule:nonzero;fill:rgb(0%,0%,0%);fill-opacity:1;" d="M 6.28125 21.601562 C 6.203125 21.621094 6.039062 21.734375 5.917969 21.855469 C 5.609375 22.164062 5.554688 22.5 5.75 22.890625 C 5.851562 23.101562 5.953125 23.210938 6.152344 23.304688 C 6.40625 23.429688 6.46875 23.4375 7.96875 23.4375 C 9.46875 23.4375 9.53125 23.429688 9.785156 23.304688 C 10.066406 23.164062 10.3125 22.789062 10.3125 22.5 C 10.3125 22.210938 10.066406 21.835938 9.785156 21.691406 C 9.53125 21.570312 9.476562 21.5625 7.96875 21.570312 C 7.113281 21.574219 6.359375 21.59375 6.28125 21.601562 Z M 6.28125 21.601562 "/>
</g>
</svg>
